<svg width="20" height="20" viewBox="0 0 20 20" fill="none" xmlns="http://www.w3.org/2000/svg">
<path fill-rule="evenodd" clip-rule="evenodd" d="M20 10L16.2014 11.5289L16.7213 12.784L15.4662 13.3039L16.5473 16.5473L13.3039 15.4661L12.784 16.7212L11.5289 16.2014L10 20L8.47106 16.2014L7.21596 16.7213L6.69611 15.4662L3.45273 16.5473L4.53385 13.3039L3.27875 12.784L3.79861 11.5289L0 10L3.79865 8.4711L3.27875 7.216L4.53385 6.69611L3.45273 3.45273L6.69607 4.53382L7.21596 3.27872L8.47106 3.79861L10 0L11.5289 3.79861L12.784 3.27872L13.3039 4.53382L16.5473 3.45269L15.4662 6.69607L16.7213 7.21596L16.2014 8.47106L20 10Z" fill="#D63333"/>
<path d="M1.49033 6.66667L2.29877 6.37282L2.59259 5.56433L1.50042 5.20031C1.40158 5.16733 1.28248 5.18706 1.19766 5.27165C1.11862 5.35093 1.09081 5.46811 1.12633 5.57443L1.49033 6.66667Z" fill="#D63333"/>
<path d="M1.49033 13.3333L2.29877 13.6272L2.59259 14.4357L1.50042 14.7997C1.40158 14.8327 1.28248 14.8129 1.19766 14.7284C1.11862 14.6491 1.09081 14.5319 1.12633 14.4256L1.49033 13.3333Z" fill="#D63333"/>
<path d="M17.7012 13.6272L18.5097 13.3333L18.8737 14.4256C18.9092 14.5319 18.8814 14.6491 18.8023 14.7284C18.7175 14.8129 18.5984 14.8327 18.4996 14.7997L17.4074 14.4357L17.7012 13.6272Z" fill="#D63333"/>
<path d="M18.5097 6.66667L17.7012 6.37282L17.4074 5.56433L18.4996 5.20031C18.5984 5.16733 18.7175 5.18706 18.8023 5.27165C18.8814 5.35093 18.9092 5.46811 18.8737 5.57443L18.5097 6.66667Z" fill="#D63333"/>
</svg>
