<svg width="22" height="20" viewBox="0 0 22 20" fill="none" xmlns="http://www.w3.org/2000/svg">
<path fill-rule="evenodd" clip-rule="evenodd" d="M21.9178 10L17.7549 11.5289L18.3247 12.784L16.9492 13.3039L18.134 16.5473L14.5796 15.4661L14.0099 16.7212L12.6344 16.2014L10.9589 20L9.28336 16.2014L7.90791 16.7213L7.3382 15.4662L3.78381 16.5473L4.96861 13.3039L3.59316 12.784L4.16286 11.5289L0 10L4.1629 8.4711L3.59316 7.216L4.96861 6.69611L3.78381 3.45273L7.33816 4.53382L7.90791 3.27872L9.28336 3.79861L10.9589 0L12.6344 3.79861L14.0099 3.27872L14.5796 4.53382L18.134 3.45269L16.9492 6.69607L18.3247 7.21596L17.7549 8.47106L21.9178 10Z" fill="#9A9EC8"/>
<path d="M1.63324 6.66667L2.5192 6.37282L2.8412 5.56433L1.6443 5.20031C1.53598 5.16733 1.40546 5.18706 1.31251 5.27165C1.22589 5.35093 1.19541 5.46811 1.23433 5.57443L1.63324 6.66667Z" fill="#9A9EC8"/>
<path d="M1.63324 13.3333L2.5192 13.6272L2.8412 14.4357L1.6443 14.7997C1.53598 14.8327 1.40546 14.8129 1.31251 14.7284C1.22589 14.6491 1.19541 14.5319 1.23433 14.4256L1.63324 13.3333Z" fill="#9A9EC8"/>
<path d="M19.3986 13.6272L20.2846 13.3333L20.6835 14.4256C20.7224 14.5319 20.6919 14.6491 20.6053 14.7284C20.5123 14.8129 20.3818 14.8327 20.2735 14.7997L19.0766 14.4357L19.3986 13.6272Z" fill="#9A9EC8"/>
<path d="M20.2846 6.66667L19.3986 6.37282L19.0766 5.56433L20.2735 5.20031C20.3818 5.16733 20.5123 5.18706 20.6053 5.27165C20.6919 5.35093 20.7224 5.46811 20.6835 5.57443L20.2846 6.66667Z" fill="#9A9EC8"/>
</svg>
