<svg width="13" height="14" viewBox="0 0 13 14" fill="none" xmlns="http://www.w3.org/2000/svg">
<path fill-rule="evenodd" clip-rule="evenodd" d="M6.22203 0.777771C5.79248 0.777771 5.44425 1.12599 5.44425 1.55555V6.22222H0.777777C0.348223 6.22222 -1.87756e-08 6.57044 0 6.99999C1.87756e-08 7.42955 0.348223 7.77777 0.777777 7.77777H5.44425V12.4444C5.44425 12.874 5.79248 13.2222 6.22203 13.2222C6.65159 13.2222 6.99981 12.874 6.99981 12.4444V7.77777H11.6667C12.0962 7.77777 12.4444 7.42955 12.4444 6.99999C12.4444 6.57044 12.0962 6.22222 11.6667 6.22222H6.99981V1.55555C6.99981 1.12599 6.65159 0.777771 6.22203 0.777771Z" fill="#9A9EC8"/>
</svg>
